<mxfile host="Electron" modified="2023-05-30T10:52:41.075Z" agent="Mozilla/5.0 (Windows NT 10.0; Win64; x64) AppleWebKit/537.36 (KHTML, like Gecko) draw.io/21.2.8 Chrome/112.0.5615.165 Electron/24.2.0 Safari/537.36" etag="UgnvH5RKR64eFb41Cx1A" version="21.2.8" type="device">
  <diagram name="Page-1" id="aMq8cFmoLgq2UjbOPxfn">
    <mxGraphModel dx="1963" dy="2127" grid="1" gridSize="10" guides="1" tooltips="1" connect="1" arrows="1" fold="1" page="1" pageScale="1" pageWidth="827" pageHeight="1169" math="0" shadow="0">
      <root>
        <mxCell id="0" />
        <mxCell id="1" parent="0" />
        <mxCell id="IOENKhYldp8VwVkXx6hs-1" value="" style="whiteSpace=wrap;html=1;aspect=fixed;" parent="1" vertex="1">
          <mxGeometry x="390" y="-1080" width="1050" height="1050" as="geometry" />
        </mxCell>
        <mxCell id="pulmmmCHg1G94OCy3MxS-39" value="" style="rhombus;whiteSpace=wrap;html=1;fontSize=10;" parent="1" vertex="1">
          <mxGeometry x="800" y="-840" width="40" height="40" as="geometry" />
        </mxCell>
        <mxCell id="pulmmmCHg1G94OCy3MxS-45" value="" style="ellipse;html=1;shape=startState;fillColor=#000000;fontSize=10;" parent="1" vertex="1">
          <mxGeometry x="805" y="-986" width="30" height="30" as="geometry" />
        </mxCell>
        <mxCell id="pulmmmCHg1G94OCy3MxS-46" value="" style="edgeStyle=orthogonalEdgeStyle;html=1;verticalAlign=bottom;endArrow=open;endSize=8;rounded=0;exitX=0.496;exitY=0.893;exitDx=0;exitDy=0;exitPerimeter=0;entryX=0.5;entryY=0;entryDx=0;entryDy=0;fontSize=10;" parent="1" source="pulmmmCHg1G94OCy3MxS-45" target="pulmmmCHg1G94OCy3MxS-47" edge="1">
          <mxGeometry relative="1" as="geometry">
            <mxPoint x="810.05" y="-860" as="targetPoint" />
          </mxGeometry>
        </mxCell>
        <mxCell id="pulmmmCHg1G94OCy3MxS-47" value="&lt;font style=&quot;font-size: 10px;&quot;&gt;Запустить программу&lt;/font&gt;" style="rounded=1;whiteSpace=wrap;html=1;arcSize=40;fontSize=10;" parent="1" vertex="1">
          <mxGeometry x="765.0699999999999" y="-940" width="110" height="30" as="geometry" />
        </mxCell>
        <mxCell id="pulmmmCHg1G94OCy3MxS-48" value="" style="edgeStyle=orthogonalEdgeStyle;html=1;verticalAlign=bottom;endArrow=open;endSize=8;rounded=0;entryX=0.5;entryY=0;entryDx=0;entryDy=0;fontSize=10;" parent="1" source="pulmmmCHg1G94OCy3MxS-47" target="pulmmmCHg1G94OCy3MxS-49" edge="1">
          <mxGeometry relative="1" as="geometry">
            <mxPoint x="810.05" y="-760" as="targetPoint" />
          </mxGeometry>
        </mxCell>
        <mxCell id="pulmmmCHg1G94OCy3MxS-49" value="&lt;font style=&quot;font-size: 10px;&quot;&gt;Отобразить окно авторизации&lt;/font&gt;" style="rounded=1;whiteSpace=wrap;html=1;arcSize=40;fontSize=10;" parent="1" vertex="1">
          <mxGeometry x="765.0699999999999" y="-890" width="110" height="30" as="geometry" />
        </mxCell>
        <mxCell id="pulmmmCHg1G94OCy3MxS-50" value="" style="edgeStyle=orthogonalEdgeStyle;html=1;verticalAlign=bottom;endArrow=open;endSize=8;rounded=0;entryX=0.5;entryY=0;entryDx=0;entryDy=0;exitX=0.5;exitY=1;exitDx=0;exitDy=0;fontSize=10;" parent="1" source="pulmmmCHg1G94OCy3MxS-49" target="pulmmmCHg1G94OCy3MxS-39" edge="1">
          <mxGeometry relative="1" as="geometry">
            <mxPoint x="810.05" y="-740" as="targetPoint" />
            <mxPoint x="830.05" y="-770" as="sourcePoint" />
          </mxGeometry>
        </mxCell>
        <mxCell id="9K1U38eS7_kuMhyRiQMp-1" value="" style="endArrow=classic;html=1;rounded=0;exitX=0;exitY=0.5;exitDx=0;exitDy=0;fontSize=10;entryX=0.5;entryY=0;entryDx=0;entryDy=0;edgeStyle=orthogonalEdgeStyle;" parent="1" source="pulmmmCHg1G94OCy3MxS-39" target="9K1U38eS7_kuMhyRiQMp-2" edge="1">
          <mxGeometry width="50" height="50" relative="1" as="geometry">
            <mxPoint x="800.05" y="-640" as="sourcePoint" />
            <mxPoint x="670.05" y="-765" as="targetPoint" />
          </mxGeometry>
        </mxCell>
        <mxCell id="9K1U38eS7_kuMhyRiQMp-2" value="Отобразить окно регистрации" style="rounded=1;whiteSpace=wrap;html=1;arcSize=40;fontSize=10;" parent="1" vertex="1">
          <mxGeometry x="645.0699999999999" y="-780" width="110" height="30" as="geometry" />
        </mxCell>
        <mxCell id="9K1U38eS7_kuMhyRiQMp-3" value="Осуществить работу в окне регистрации" style="rounded=1;whiteSpace=wrap;html=1;arcSize=40;fontSize=10;" parent="1" vertex="1">
          <mxGeometry x="645.0699999999999" y="-730" width="110" height="30" as="geometry" />
        </mxCell>
        <mxCell id="9K1U38eS7_kuMhyRiQMp-9" value="" style="endArrow=classic;html=1;rounded=0;edgeStyle=orthogonalEdgeStyle;entryX=0.5;entryY=0;entryDx=0;entryDy=0;exitX=0.5;exitY=1;exitDx=0;exitDy=0;fontSize=10;" parent="1" source="9K1U38eS7_kuMhyRiQMp-2" target="9K1U38eS7_kuMhyRiQMp-3" edge="1">
          <mxGeometry width="50" height="50" relative="1" as="geometry">
            <mxPoint x="715.0699999999999" y="-570" as="sourcePoint" />
            <mxPoint x="635.0699999999999" y="-530" as="targetPoint" />
          </mxGeometry>
        </mxCell>
        <mxCell id="9K1U38eS7_kuMhyRiQMp-10" value="" style="endArrow=classic;html=1;rounded=0;edgeStyle=orthogonalEdgeStyle;entryX=0;entryY=0.5;entryDx=0;entryDy=0;exitX=0.5;exitY=1;exitDx=0;exitDy=0;fontSize=10;" parent="1" source="9K1U38eS7_kuMhyRiQMp-3" target="bBu35zuxysMlmbmQ7ivV-4" edge="1">
          <mxGeometry width="50" height="50" relative="1" as="geometry">
            <mxPoint x="654.52" y="-520" as="sourcePoint" />
            <mxPoint x="655.05" y="-610" as="targetPoint" />
          </mxGeometry>
        </mxCell>
        <mxCell id="9K1U38eS7_kuMhyRiQMp-94" value="Регистрация" style="text;html=1;align=center;verticalAlign=middle;resizable=0;points=[];autosize=1;strokeColor=none;fillColor=none;fontSize=10;" parent="1" vertex="1">
          <mxGeometry x="731.9999999999999" y="-850" width="80" height="30" as="geometry" />
        </mxCell>
        <mxCell id="9K1U38eS7_kuMhyRiQMp-151" value="Авторизоваться в &lt;br style=&quot;font-size: 10px;&quot;&gt;роли организатора" style="text;html=1;align=center;verticalAlign=middle;resizable=0;points=[];autosize=1;strokeColor=none;fillColor=none;fontSize=10;" parent="1" vertex="1">
          <mxGeometry x="820.0599999999998" y="-820" width="110" height="40" as="geometry" />
        </mxCell>
        <mxCell id="bBu35zuxysMlmbmQ7ivV-1" value="Ввести необходимые данные" style="rounded=1;whiteSpace=wrap;html=1;arcSize=40;fontSize=10;" parent="1" vertex="1">
          <mxGeometry x="765.07" y="-780" width="110" height="30" as="geometry" />
        </mxCell>
        <mxCell id="bBu35zuxysMlmbmQ7ivV-2" value="" style="endArrow=classic;html=1;rounded=0;edgeStyle=orthogonalEdgeStyle;entryX=0.5;entryY=0;entryDx=0;entryDy=0;exitX=0.5;exitY=1;exitDx=0;exitDy=0;fontSize=10;" parent="1" source="pulmmmCHg1G94OCy3MxS-39" target="bBu35zuxysMlmbmQ7ivV-1" edge="1">
          <mxGeometry width="50" height="50" relative="1" as="geometry">
            <mxPoint x="665.05" y="-620" as="sourcePoint" />
            <mxPoint x="665.05" y="-600" as="targetPoint" />
          </mxGeometry>
        </mxCell>
        <mxCell id="bBu35zuxysMlmbmQ7ivV-3" value="Нажать на кнопку &quot;Войти&quot;" style="rounded=1;whiteSpace=wrap;html=1;arcSize=40;fontSize=10;" parent="1" vertex="1">
          <mxGeometry x="765.0699999999999" y="-730" width="110" height="30" as="geometry" />
        </mxCell>
        <mxCell id="bBu35zuxysMlmbmQ7ivV-4" value="Данные введены верно?" style="rhombus;whiteSpace=wrap;html=1;fontSize=10;" parent="1" vertex="1">
          <mxGeometry x="759.9999999999999" y="-680" width="120" height="80" as="geometry" />
        </mxCell>
        <mxCell id="bBu35zuxysMlmbmQ7ivV-5" value="Отобразить сообщения об ошибке" style="rounded=1;whiteSpace=wrap;html=1;arcSize=40;fontSize=10;" parent="1" vertex="1">
          <mxGeometry x="885.0000000000001" y="-760" width="110" height="30" as="geometry" />
        </mxCell>
        <mxCell id="bBu35zuxysMlmbmQ7ivV-6" value="" style="endArrow=classic;html=1;rounded=0;edgeStyle=orthogonalEdgeStyle;entryX=0.5;entryY=1;entryDx=0;entryDy=0;exitX=1;exitY=0.5;exitDx=0;exitDy=0;fontSize=10;" parent="1" source="bBu35zuxysMlmbmQ7ivV-4" target="bBu35zuxysMlmbmQ7ivV-5" edge="1">
          <mxGeometry width="50" height="50" relative="1" as="geometry">
            <mxPoint x="665.05" y="-620" as="sourcePoint" />
            <mxPoint x="760.05" y="-530" as="targetPoint" />
          </mxGeometry>
        </mxCell>
        <mxCell id="bBu35zuxysMlmbmQ7ivV-7" value="" style="endArrow=classic;html=1;rounded=0;edgeStyle=orthogonalEdgeStyle;entryX=1;entryY=0.5;entryDx=0;entryDy=0;exitX=0.5;exitY=0;exitDx=0;exitDy=0;fontSize=10;" parent="1" source="bBu35zuxysMlmbmQ7ivV-5" target="pulmmmCHg1G94OCy3MxS-39" edge="1">
          <mxGeometry width="50" height="50" relative="1" as="geometry">
            <mxPoint x="880.05" y="-530" as="sourcePoint" />
            <mxPoint x="975.05" y="-650" as="targetPoint" />
          </mxGeometry>
        </mxCell>
        <mxCell id="bBu35zuxysMlmbmQ7ivV-8" value="Отобразить главную панель организатора" style="rounded=1;whiteSpace=wrap;html=1;arcSize=40;fontSize=10;" parent="1" vertex="1">
          <mxGeometry x="765" y="-580" width="110" height="30" as="geometry" />
        </mxCell>
        <mxCell id="bBu35zuxysMlmbmQ7ivV-9" value="" style="endArrow=classic;html=1;rounded=0;edgeStyle=orthogonalEdgeStyle;entryX=0.5;entryY=0;entryDx=0;entryDy=0;exitX=0.5;exitY=1;exitDx=0;exitDy=0;fontSize=10;" parent="1" source="bBu35zuxysMlmbmQ7ivV-1" target="bBu35zuxysMlmbmQ7ivV-3" edge="1">
          <mxGeometry width="50" height="50" relative="1" as="geometry">
            <mxPoint x="809.7299999999999" y="-590" as="sourcePoint" />
            <mxPoint x="809.7299999999999" y="-550" as="targetPoint" />
          </mxGeometry>
        </mxCell>
        <mxCell id="bBu35zuxysMlmbmQ7ivV-10" value="" style="endArrow=classic;html=1;rounded=0;edgeStyle=orthogonalEdgeStyle;entryX=0.5;entryY=0;entryDx=0;entryDy=0;fontSize=10;exitX=0.5;exitY=1;exitDx=0;exitDy=0;" parent="1" source="bBu35zuxysMlmbmQ7ivV-3" target="bBu35zuxysMlmbmQ7ivV-4" edge="1">
          <mxGeometry width="50" height="50" relative="1" as="geometry">
            <mxPoint x="840.05" y="-580" as="sourcePoint" />
            <mxPoint x="820.05" y="-630" as="targetPoint" />
          </mxGeometry>
        </mxCell>
        <mxCell id="bBu35zuxysMlmbmQ7ivV-11" value="Выбрать вкладку&amp;nbsp;" style="rounded=1;whiteSpace=wrap;html=1;arcSize=40;fontSize=10;" parent="1" vertex="1">
          <mxGeometry x="765" y="-530" width="110" height="30" as="geometry" />
        </mxCell>
        <mxCell id="bBu35zuxysMlmbmQ7ivV-13" value="Выбрана вкладка &lt;br style=&quot;font-size: 10px;&quot;&gt;&quot;События&quot;" style="text;html=1;align=center;verticalAlign=middle;resizable=0;points=[];autosize=1;strokeColor=none;fillColor=none;fontSize=10;" parent="1" vertex="1">
          <mxGeometry x="710.0600000000001" y="-495" width="110" height="40" as="geometry" />
        </mxCell>
        <mxCell id="bBu35zuxysMlmbmQ7ivV-14" value="Вкладка &quot;События&quot;&lt;br style=&quot;font-size: 10px;&quot;&gt;не выбрана" style="text;html=1;align=center;verticalAlign=middle;resizable=0;points=[];autosize=1;strokeColor=none;fillColor=none;fontSize=10;" parent="1" vertex="1">
          <mxGeometry x="830" y="-495" width="110" height="40" as="geometry" />
        </mxCell>
        <mxCell id="bBu35zuxysMlmbmQ7ivV-15" value="Отобразить окно работы с событиями" style="rounded=1;whiteSpace=wrap;html=1;arcSize=40;fontSize=10;" parent="1" vertex="1">
          <mxGeometry x="690.07" y="-440" width="110" height="30" as="geometry" />
        </mxCell>
        <mxCell id="bBu35zuxysMlmbmQ7ivV-16" value="" style="endArrow=classic;html=1;rounded=0;entryX=0.5;entryY=0;entryDx=0;entryDy=0;exitX=0;exitY=0.5;exitDx=0;exitDy=0;edgeStyle=orthogonalEdgeStyle;fontSize=10;" parent="1" source="bBu35zuxysMlmbmQ7ivV-28" target="bBu35zuxysMlmbmQ7ivV-15" edge="1">
          <mxGeometry width="50" height="50" relative="1" as="geometry">
            <mxPoint x="760.0699999999997" y="-440" as="sourcePoint" />
            <mxPoint x="830" y="-420" as="targetPoint" />
          </mxGeometry>
        </mxCell>
        <mxCell id="bBu35zuxysMlmbmQ7ivV-17" value="Осуществить работу с иными действиями" style="rounded=1;whiteSpace=wrap;html=1;arcSize=40;fontSize=10;" parent="1" vertex="1">
          <mxGeometry x="840" y="-440" width="110" height="30" as="geometry" />
        </mxCell>
        <mxCell id="bBu35zuxysMlmbmQ7ivV-18" value="" style="endArrow=classic;html=1;rounded=0;entryX=0.5;entryY=0;entryDx=0;entryDy=0;exitX=1;exitY=0.5;exitDx=0;exitDy=0;edgeStyle=orthogonalEdgeStyle;fontSize=10;" parent="1" source="bBu35zuxysMlmbmQ7ivV-28" target="bBu35zuxysMlmbmQ7ivV-17" edge="1">
          <mxGeometry width="50" height="50" relative="1" as="geometry">
            <mxPoint x="880.0699999999997" y="-440" as="sourcePoint" />
            <mxPoint x="730" y="-390" as="targetPoint" />
          </mxGeometry>
        </mxCell>
        <mxCell id="bBu35zuxysMlmbmQ7ivV-19" value="Нажать кнопку &quot;Новое событие&quot;" style="rounded=1;whiteSpace=wrap;html=1;arcSize=40;fontSize=10;" parent="1" vertex="1">
          <mxGeometry x="690.05" y="-390" width="110" height="30" as="geometry" />
        </mxCell>
        <mxCell id="bBu35zuxysMlmbmQ7ivV-22" value="" style="endArrow=classic;html=1;rounded=0;exitX=0.5;exitY=1;exitDx=0;exitDy=0;entryX=0.5;entryY=0;entryDx=0;entryDy=0;fontSize=10;" parent="1" source="bBu35zuxysMlmbmQ7ivV-19" target="bBu35zuxysMlmbmQ7ivV-31" edge="1">
          <mxGeometry width="50" height="50" relative="1" as="geometry">
            <mxPoint x="729.9799999999999" y="-350" as="sourcePoint" />
            <mxPoint x="719.9799999999999" y="-300" as="targetPoint" />
          </mxGeometry>
        </mxCell>
        <mxCell id="bBu35zuxysMlmbmQ7ivV-23" value="Отобразить окно добавления события" style="rounded=1;whiteSpace=wrap;html=1;arcSize=40;fontSize=10;" parent="1" vertex="1">
          <mxGeometry x="690.05" y="-280" width="110" height="30" as="geometry" />
        </mxCell>
        <mxCell id="bBu35zuxysMlmbmQ7ivV-24" value="Ввести необходимые данные" style="rounded=1;whiteSpace=wrap;html=1;arcSize=40;fontSize=10;" parent="1" vertex="1">
          <mxGeometry x="689.9799999999999" y="-230" width="110" height="30" as="geometry" />
        </mxCell>
        <mxCell id="bBu35zuxysMlmbmQ7ivV-25" value="Нажать на кнопку &quot;Добавить событие&quot;" style="rounded=1;whiteSpace=wrap;html=1;arcSize=40;fontSize=10;" parent="1" vertex="1">
          <mxGeometry x="690.05" y="-180" width="110" height="30" as="geometry" />
        </mxCell>
        <mxCell id="bBu35zuxysMlmbmQ7ivV-27" value="" style="endArrow=classic;html=1;rounded=0;edgeStyle=orthogonalEdgeStyle;entryX=0.5;entryY=0;entryDx=0;entryDy=0;fontSize=10;exitX=0.5;exitY=1;exitDx=0;exitDy=0;" parent="1" source="bBu35zuxysMlmbmQ7ivV-4" target="bBu35zuxysMlmbmQ7ivV-8" edge="1">
          <mxGeometry width="50" height="50" relative="1" as="geometry">
            <mxPoint x="830" y="-690" as="sourcePoint" />
            <mxPoint x="830" y="-670" as="targetPoint" />
          </mxGeometry>
        </mxCell>
        <mxCell id="bBu35zuxysMlmbmQ7ivV-28" value="" style="rhombus;whiteSpace=wrap;html=1;fontSize=10;" parent="1" vertex="1">
          <mxGeometry x="800.0699999999999" y="-480" width="40" height="40" as="geometry" />
        </mxCell>
        <mxCell id="bBu35zuxysMlmbmQ7ivV-29" value="" style="endArrow=classic;html=1;rounded=0;edgeStyle=orthogonalEdgeStyle;entryX=0.5;entryY=0;entryDx=0;entryDy=0;fontSize=10;exitX=0.5;exitY=1;exitDx=0;exitDy=0;" parent="1" source="bBu35zuxysMlmbmQ7ivV-8" target="bBu35zuxysMlmbmQ7ivV-11" edge="1">
          <mxGeometry width="50" height="50" relative="1" as="geometry">
            <mxPoint x="830" y="-590" as="sourcePoint" />
            <mxPoint x="830" y="-570" as="targetPoint" />
          </mxGeometry>
        </mxCell>
        <mxCell id="bBu35zuxysMlmbmQ7ivV-30" value="" style="endArrow=classic;html=1;rounded=0;edgeStyle=orthogonalEdgeStyle;entryX=0.5;entryY=0;entryDx=0;entryDy=0;fontSize=10;exitX=0.5;exitY=1;exitDx=0;exitDy=0;" parent="1" source="bBu35zuxysMlmbmQ7ivV-11" target="bBu35zuxysMlmbmQ7ivV-28" edge="1">
          <mxGeometry width="50" height="50" relative="1" as="geometry">
            <mxPoint x="830" y="-540" as="sourcePoint" />
            <mxPoint x="830" y="-520" as="targetPoint" />
          </mxGeometry>
        </mxCell>
        <mxCell id="bBu35zuxysMlmbmQ7ivV-31" value="" style="rhombus;whiteSpace=wrap;html=1;fontSize=10;" parent="1" vertex="1">
          <mxGeometry x="724.9799999999999" y="-340" width="40" height="40" as="geometry" />
        </mxCell>
        <mxCell id="bBu35zuxysMlmbmQ7ivV-32" value="" style="endArrow=classic;html=1;rounded=0;entryX=0.5;entryY=0;entryDx=0;entryDy=0;fontSize=10;exitX=0.5;exitY=1;exitDx=0;exitDy=0;" parent="1" source="bBu35zuxysMlmbmQ7ivV-31" target="bBu35zuxysMlmbmQ7ivV-23" edge="1">
          <mxGeometry width="50" height="50" relative="1" as="geometry">
            <mxPoint x="754.9799999999999" y="-350" as="sourcePoint" />
            <mxPoint x="754.9799999999999" y="-330" as="targetPoint" />
          </mxGeometry>
        </mxCell>
        <mxCell id="bBu35zuxysMlmbmQ7ivV-33" value="" style="endArrow=classic;html=1;rounded=0;entryX=0.5;entryY=0;entryDx=0;entryDy=0;fontSize=10;exitX=0.5;exitY=1;exitDx=0;exitDy=0;" parent="1" source="bBu35zuxysMlmbmQ7ivV-23" target="bBu35zuxysMlmbmQ7ivV-24" edge="1">
          <mxGeometry width="50" height="50" relative="1" as="geometry">
            <mxPoint x="754.9799999999999" y="-290" as="sourcePoint" />
            <mxPoint x="754.9799999999999" y="-270" as="targetPoint" />
          </mxGeometry>
        </mxCell>
        <mxCell id="bBu35zuxysMlmbmQ7ivV-34" value="" style="endArrow=classic;html=1;rounded=0;entryX=0.5;entryY=0;entryDx=0;entryDy=0;fontSize=10;exitX=0.5;exitY=1;exitDx=0;exitDy=0;" parent="1" source="bBu35zuxysMlmbmQ7ivV-24" target="bBu35zuxysMlmbmQ7ivV-25" edge="1">
          <mxGeometry width="50" height="50" relative="1" as="geometry">
            <mxPoint x="754.9799999999999" y="-240" as="sourcePoint" />
            <mxPoint x="754.9799999999999" y="-220" as="targetPoint" />
          </mxGeometry>
        </mxCell>
        <mxCell id="bBu35zuxysMlmbmQ7ivV-36" value="Данные введены верно?" style="rhombus;whiteSpace=wrap;html=1;fontSize=10;" parent="1" vertex="1">
          <mxGeometry x="685.0499999999998" y="-130" width="120" height="80" as="geometry" />
        </mxCell>
        <mxCell id="bBu35zuxysMlmbmQ7ivV-38" value="Отобразить сообщения об ошибке" style="rounded=1;whiteSpace=wrap;html=1;arcSize=40;fontSize=10;" parent="1" vertex="1">
          <mxGeometry x="570" y="-230" width="110" height="30" as="geometry" />
        </mxCell>
        <mxCell id="bBu35zuxysMlmbmQ7ivV-39" value="" style="endArrow=classic;html=1;rounded=0;entryX=0.5;entryY=0;entryDx=0;entryDy=0;fontSize=10;exitX=0.5;exitY=1;exitDx=0;exitDy=0;" parent="1" source="bBu35zuxysMlmbmQ7ivV-25" target="bBu35zuxysMlmbmQ7ivV-36" edge="1">
          <mxGeometry width="50" height="50" relative="1" as="geometry">
            <mxPoint x="754.9799999999999" y="-190" as="sourcePoint" />
            <mxPoint x="754.9799999999999" y="-170" as="targetPoint" />
          </mxGeometry>
        </mxCell>
        <mxCell id="bBu35zuxysMlmbmQ7ivV-40" value="" style="endArrow=classic;html=1;rounded=0;entryX=0.5;entryY=1;entryDx=0;entryDy=0;fontSize=10;exitX=0;exitY=0.5;exitDx=0;exitDy=0;edgeStyle=orthogonalEdgeStyle;" parent="1" source="bBu35zuxysMlmbmQ7ivV-36" target="bBu35zuxysMlmbmQ7ivV-38" edge="1">
          <mxGeometry width="50" height="50" relative="1" as="geometry">
            <mxPoint x="754.9799999999999" y="-140" as="sourcePoint" />
            <mxPoint x="754.9799999999999" y="-120" as="targetPoint" />
          </mxGeometry>
        </mxCell>
        <mxCell id="bBu35zuxysMlmbmQ7ivV-41" value="" style="endArrow=classic;html=1;rounded=0;entryX=0;entryY=0.5;entryDx=0;entryDy=0;fontSize=10;exitX=0.5;exitY=0;exitDx=0;exitDy=0;edgeStyle=orthogonalEdgeStyle;" parent="1" source="bBu35zuxysMlmbmQ7ivV-38" target="bBu35zuxysMlmbmQ7ivV-31" edge="1">
          <mxGeometry width="50" height="50" relative="1" as="geometry">
            <mxPoint x="694.9799999999999" y="-80" as="sourcePoint" />
            <mxPoint x="634.9799999999999" y="-190" as="targetPoint" />
          </mxGeometry>
        </mxCell>
        <mxCell id="bBu35zuxysMlmbmQ7ivV-42" value="Да" style="text;html=1;align=center;verticalAlign=middle;resizable=0;points=[];autosize=1;strokeColor=none;fillColor=none;" parent="1" vertex="1">
          <mxGeometry x="780.06" y="-614" width="40" height="30" as="geometry" />
        </mxCell>
        <mxCell id="bBu35zuxysMlmbmQ7ivV-43" value="Нет" style="text;html=1;align=center;verticalAlign=middle;resizable=0;points=[];autosize=1;strokeColor=none;fillColor=none;" parent="1" vertex="1">
          <mxGeometry x="860.06" y="-670" width="40" height="30" as="geometry" />
        </mxCell>
        <mxCell id="bBu35zuxysMlmbmQ7ivV-44" value="Нет" style="text;html=1;align=center;verticalAlign=middle;resizable=0;points=[];autosize=1;strokeColor=none;fillColor=none;" parent="1" vertex="1">
          <mxGeometry x="659.9799999999999" y="-120" width="40" height="30" as="geometry" />
        </mxCell>
        <mxCell id="bBu35zuxysMlmbmQ7ivV-60" value="Нажать на кнопку настроек события" style="rounded=1;whiteSpace=wrap;html=1;arcSize=40;fontSize=10;" parent="1" vertex="1">
          <mxGeometry x="875" y="-370" width="110" height="30" as="geometry" />
        </mxCell>
        <mxCell id="bBu35zuxysMlmbmQ7ivV-61" value="Отобразить окно настроек события" style="rounded=1;whiteSpace=wrap;html=1;arcSize=40;fontSize=10;" parent="1" vertex="1">
          <mxGeometry x="875" y="-320" width="110" height="30" as="geometry" />
        </mxCell>
        <mxCell id="bBu35zuxysMlmbmQ7ivV-62" value="Нажать на кнопку &quot;Добавить викторину&quot;" style="rounded=1;whiteSpace=wrap;html=1;arcSize=40;fontSize=10;" parent="1" vertex="1">
          <mxGeometry x="875" y="-270" width="110" height="30" as="geometry" />
        </mxCell>
        <mxCell id="bBu35zuxysMlmbmQ7ivV-63" value="Отобразить окно добавления викторин на событие" style="rounded=1;whiteSpace=wrap;html=1;arcSize=40;fontSize=10;" parent="1" vertex="1">
          <mxGeometry x="875" y="-220" width="110" height="30" as="geometry" />
        </mxCell>
        <mxCell id="bBu35zuxysMlmbmQ7ivV-64" value="Выбрат необходимые викторины" style="rounded=1;whiteSpace=wrap;html=1;arcSize=40;fontSize=10;" parent="1" vertex="1">
          <mxGeometry x="875" y="-170" width="110" height="30" as="geometry" />
        </mxCell>
        <mxCell id="bBu35zuxysMlmbmQ7ivV-65" value="Нажать на кнопку &quot;Добавить&quot;" style="rounded=1;whiteSpace=wrap;html=1;arcSize=40;fontSize=10;" parent="1" vertex="1">
          <mxGeometry x="875" y="-120" width="110" height="30" as="geometry" />
        </mxCell>
        <mxCell id="bBu35zuxysMlmbmQ7ivV-66" value="" style="endArrow=classic;html=1;rounded=0;entryX=0.5;entryY=0;entryDx=0;entryDy=0;fontSize=10;exitX=0.5;exitY=1;exitDx=0;exitDy=0;edgeStyle=orthogonalEdgeStyle;" parent="1" source="bBu35zuxysMlmbmQ7ivV-60" target="bBu35zuxysMlmbmQ7ivV-61" edge="1">
          <mxGeometry width="50" height="50" relative="1" as="geometry">
            <mxPoint x="939.94" y="-380" as="sourcePoint" />
            <mxPoint x="939.94" y="-360" as="targetPoint" />
          </mxGeometry>
        </mxCell>
        <mxCell id="bBu35zuxysMlmbmQ7ivV-67" value="" style="endArrow=classic;html=1;rounded=0;entryX=0.5;entryY=0;entryDx=0;entryDy=0;fontSize=10;exitX=0.5;exitY=1;exitDx=0;exitDy=0;edgeStyle=orthogonalEdgeStyle;" parent="1" source="bBu35zuxysMlmbmQ7ivV-61" target="bBu35zuxysMlmbmQ7ivV-62" edge="1">
          <mxGeometry width="50" height="50" relative="1" as="geometry">
            <mxPoint x="939.94" y="-330" as="sourcePoint" />
            <mxPoint x="939.94" y="-310" as="targetPoint" />
          </mxGeometry>
        </mxCell>
        <mxCell id="bBu35zuxysMlmbmQ7ivV-68" value="" style="endArrow=classic;html=1;rounded=0;entryX=0.5;entryY=0;entryDx=0;entryDy=0;fontSize=10;exitX=0.5;exitY=1;exitDx=0;exitDy=0;edgeStyle=orthogonalEdgeStyle;" parent="1" source="bBu35zuxysMlmbmQ7ivV-62" target="bBu35zuxysMlmbmQ7ivV-63" edge="1">
          <mxGeometry width="50" height="50" relative="1" as="geometry">
            <mxPoint x="939.94" y="-280" as="sourcePoint" />
            <mxPoint x="939.94" y="-260" as="targetPoint" />
          </mxGeometry>
        </mxCell>
        <mxCell id="bBu35zuxysMlmbmQ7ivV-69" value="" style="endArrow=classic;html=1;rounded=0;entryX=0.5;entryY=0;entryDx=0;entryDy=0;fontSize=10;exitX=0.5;exitY=1;exitDx=0;exitDy=0;edgeStyle=orthogonalEdgeStyle;" parent="1" source="bBu35zuxysMlmbmQ7ivV-63" target="bBu35zuxysMlmbmQ7ivV-64" edge="1">
          <mxGeometry width="50" height="50" relative="1" as="geometry">
            <mxPoint x="939.94" y="-230" as="sourcePoint" />
            <mxPoint x="939.94" y="-210" as="targetPoint" />
          </mxGeometry>
        </mxCell>
        <mxCell id="bBu35zuxysMlmbmQ7ivV-70" value="" style="endArrow=classic;html=1;rounded=0;entryX=0.5;entryY=0;entryDx=0;entryDy=0;fontSize=10;exitX=0.5;exitY=1;exitDx=0;exitDy=0;edgeStyle=orthogonalEdgeStyle;" parent="1" source="bBu35zuxysMlmbmQ7ivV-64" target="bBu35zuxysMlmbmQ7ivV-65" edge="1">
          <mxGeometry width="50" height="50" relative="1" as="geometry">
            <mxPoint x="939.94" y="-180" as="sourcePoint" />
            <mxPoint x="939.94" y="-160" as="targetPoint" />
          </mxGeometry>
        </mxCell>
        <mxCell id="bBu35zuxysMlmbmQ7ivV-73" value="" style="endArrow=classic;html=1;rounded=0;exitX=0.5;exitY=1;exitDx=0;exitDy=0;entryX=0.5;entryY=0;entryDx=0;entryDy=0;fontSize=10;" parent="1" source="bBu35zuxysMlmbmQ7ivV-15" target="bBu35zuxysMlmbmQ7ivV-19" edge="1">
          <mxGeometry width="50" height="50" relative="1" as="geometry">
            <mxPoint x="755" y="-340" as="sourcePoint" />
            <mxPoint x="745.0699999999999" y="-390" as="targetPoint" />
          </mxGeometry>
        </mxCell>
        <mxCell id="bBu35zuxysMlmbmQ7ivV-78" value="" style="endArrow=classic;html=1;rounded=0;entryX=0.5;entryY=0;entryDx=0;entryDy=0;fontSize=10;exitX=1;exitY=0.5;exitDx=0;exitDy=0;edgeStyle=orthogonalEdgeStyle;" parent="1" source="bBu35zuxysMlmbmQ7ivV-36" target="bBu35zuxysMlmbmQ7ivV-60" edge="1">
          <mxGeometry width="50" height="50" relative="1" as="geometry">
            <mxPoint x="695" y="-60" as="sourcePoint" />
            <mxPoint x="635" y="-170" as="targetPoint" />
            <Array as="points">
              <mxPoint x="840" y="-90" />
              <mxPoint x="840" y="-400" />
              <mxPoint x="930" y="-400" />
            </Array>
          </mxGeometry>
        </mxCell>
        <mxCell id="bBu35zuxysMlmbmQ7ivV-79" value="Да" style="text;html=1;align=center;verticalAlign=middle;resizable=0;points=[];autosize=1;strokeColor=none;fillColor=none;" parent="1" vertex="1">
          <mxGeometry x="787.05" y="-120" width="40" height="30" as="geometry" />
        </mxCell>
        <mxCell id="bBu35zuxysMlmbmQ7ivV-81" value="" style="endArrow=classic;html=1;rounded=0;entryX=0.5;entryY=1;entryDx=0;entryDy=0;fontSize=10;exitX=0.5;exitY=1;exitDx=0;exitDy=0;edgeStyle=orthogonalEdgeStyle;" parent="1" source="bBu35zuxysMlmbmQ7ivV-65" target="bBu35zuxysMlmbmQ7ivV-83" edge="1">
          <mxGeometry width="50" height="50" relative="1" as="geometry">
            <mxPoint x="939.93" y="-130" as="sourcePoint" />
            <mxPoint x="1039.9300000000003" y="-240" as="targetPoint" />
            <Array as="points">
              <mxPoint x="930" y="-60" />
              <mxPoint x="1040" y="-60" />
              <mxPoint x="1040" y="-200" />
            </Array>
          </mxGeometry>
        </mxCell>
        <mxCell id="bBu35zuxysMlmbmQ7ivV-82" value="" style="endArrow=classic;html=1;rounded=0;entryX=0.5;entryY=0;entryDx=0;entryDy=0;fontSize=10;exitX=1;exitY=0.5;exitDx=0;exitDy=0;edgeStyle=orthogonalEdgeStyle;" parent="1" source="bBu35zuxysMlmbmQ7ivV-17" target="bBu35zuxysMlmbmQ7ivV-83" edge="1">
          <mxGeometry width="50" height="50" relative="1" as="geometry">
            <mxPoint x="905" y="-40" as="sourcePoint" />
            <mxPoint x="1039.9300000000003" y="-230" as="targetPoint" />
          </mxGeometry>
        </mxCell>
        <mxCell id="bBu35zuxysMlmbmQ7ivV-83" value="" style="rhombus;whiteSpace=wrap;html=1;fontSize=10;" parent="1" vertex="1">
          <mxGeometry x="1020" y="-280" width="40" height="40" as="geometry" />
        </mxCell>
        <mxCell id="bBu35zuxysMlmbmQ7ivV-84" value="" style="ellipse;html=1;shape=endState;fillColor=#000000;strokeColor=#000000;fontSize=10;" parent="1" vertex="1">
          <mxGeometry x="1115" y="-275" width="30" height="30" as="geometry" />
        </mxCell>
        <mxCell id="bBu35zuxysMlmbmQ7ivV-86" value="" style="endArrow=classic;html=1;rounded=0;entryX=0;entryY=0.5;entryDx=0;entryDy=0;fontSize=10;exitX=1;exitY=0.5;exitDx=0;exitDy=0;" parent="1" source="bBu35zuxysMlmbmQ7ivV-83" target="bBu35zuxysMlmbmQ7ivV-84" edge="1">
          <mxGeometry width="50" height="50" relative="1" as="geometry">
            <mxPoint x="940" y="-80" as="sourcePoint" />
            <mxPoint x="1050" y="-230" as="targetPoint" />
          </mxGeometry>
        </mxCell>
      </root>
    </mxGraphModel>
  </diagram>
</mxfile>
